<svg width="16" height="16" viewBox="0 0 16 16" fill="none" xmlns="http://www.w3.org/2000/svg">
<rect x="0.5" y="0.5" width="15" height="15" rx="1.5" fill="white"/>
<rect x="0.5" y="0.5" width="15" height="15" rx="1.5" stroke="#D9D9D9"/>
<g clip-path="url(#clip0_1391_2799)">
<rect width="12" height="12" transform="translate(2 2)" fill="white" fill-opacity="0.01"/>
<path fill-rule="evenodd" clip-rule="evenodd" d="M8 6.859L5.41451 9.44449C5.02399 9.83501 4.46997 9.91416 4.17707 9.62127C3.88418 9.32837 3.96333 8.77435 4.35385 8.38383L7.18228 5.5554C7.42557 5.31211 7.73231 5.18967 7.99984 5.20274C8.26744 5.18957 8.57432 5.31201 8.8177 5.55539L11.6461 8.38381C12.0367 8.77434 12.1158 9.32836 11.8229 9.62125C11.53 9.91414 10.976 9.835 10.5855 9.44447L8 6.859Z" fill="black" fill-opacity="0.85"/>
</g>
<defs>
<clipPath id="clip0_1391_2799">
<rect width="12" height="12" fill="white" transform="translate(2 2)"/>
</clipPath>
</defs>
</svg>
