<svg width="16" height="16" viewBox="0 0 16 16" fill="none" xmlns="http://www.w3.org/2000/svg">
<rect x="0.5" y="0.5" width="15" height="15" rx="1.5" fill="white"/>
<rect x="0.5" y="0.5" width="15" height="15" rx="1.5" stroke="#D9D9D9"/>
<g clip-path="url(#clip0_1391_1867)">
<rect width="12" height="12" transform="translate(2 2)" fill="white" fill-opacity="0.01"/>
<path fill-rule="evenodd" clip-rule="evenodd" d="M5.41439 5.55539C5.02386 5.16486 4.46984 5.08572 4.17695 5.37861C3.88406 5.6715 3.9632 6.22552 4.35373 6.61605L7.18215 9.44447C7.42548 9.6878 7.73228 9.81024 7.99984 9.79713C8.26749 9.81039 8.57449 9.68795 8.81794 9.4445L11.6464 6.61607C12.0369 6.22554 12.116 5.67152 11.8231 5.37863C11.5302 5.08574 10.9762 5.16488 10.5857 5.55541L8.00006 8.14106L5.41439 5.55539Z" fill="black" fill-opacity="0.85"/>
</g>
<defs>
<clipPath id="clip0_1391_1867">
<rect width="12" height="12" fill="white" transform="translate(2 2)"/>
</clipPath>
</defs>
</svg>
